<?xml version="1.0" encoding="UTF-8" standalone="no"?>
<svg
   width="90.571533"
   height="104.73261"
   viewBox="0.32101717 0.30000004 90.571536 104.73262"
   version="1.1"
   xml:space="preserve"
   id="svg10"
   sodipodi:docname="hackfromscratch_logo.svg"
   inkscape:version="1.4.2 (ebf0e940d0, 2025-05-08)"
   inkscape:export-filename="logo.png"
   inkscape:export-xdpi="96"
   inkscape:export-ydpi="96"
   xmlns:inkscape="http://www.inkscape.org/namespaces/inkscape"
   xmlns:sodipodi="http://sodipodi.sourceforge.net/DTD/sodipodi-0.dtd"
   xmlns="http://www.w3.org/2000/svg"
   xmlns:svg="http://www.w3.org/2000/svg"><defs
   id="defs10"><radialGradient
     inkscape:collect="always"
     r="255.59"
     gradientTransform="matrix(-0.12272793,0,0,0.12272793,-1807.3634,-1063.9497)"
     cx="-464.92001"
     cy="873.19"
     gradientUnits="userSpaceOnUse"
     id="radialGradient3026-9-1"><stop
       offset="1"
       style="stop-color:#ffcf46;stop-opacity:1;"
       id="stop48-0-2" /><stop
       offset="1"
       style="stop-color:#f0a957;stop-opacity:1"
       id="stop50-8-9" /></radialGradient></defs><sodipodi:namedview
   id="namedview10"
   pagecolor="#ffffff"
   bordercolor="#000000"
   borderopacity="0.25"
   inkscape:showpageshadow="2"
   inkscape:pageopacity="0.0"
   inkscape:pagecheckerboard="0"
   inkscape:deskcolor="#d1d1d1"
   inkscape:zoom="5.3781038"
   inkscape:cx="32.818258"
   inkscape:cy="47.414481"
   inkscape:window-width="1908"
   inkscape:window-height="1148"
   inkscape:window-x="0"
   inkscape:window-y="0"
   inkscape:window-maximized="1"
   inkscape:current-layer="costume1" />
  <!-- Generator: Sketch 52.5 (67469) - http://www.bohemiancoding.com/sketch -->
  <g
   id="g10"
   transform="translate(-89.620736,-80.708214)">
    <title
   id="title1">costume1.1</title>
    <desc
   id="desc1">Created with Sketch.</desc>
    <g
   id="Page-1"
   stroke="none"
   fill-rule="evenodd">
      <g
   id="costume1">
        <g
   id="costume1.1">
          <g
   id="tail"
   transform="translate(89.621666,85.203694)">
            <path
   d="M 21.9,73.8 C 19.5,73.3 16.6,72.5 14.2,70.3 8.7,65.4 7,57.3 3.2,59.4 c -3.9,2.1 -3.8,15.2 8.4,19.2 4.2,1.4 8,1.4 11.1,1.3 0.8,0 7.7,-0.7 10.1,-4.1 2.4,-3.4 0.7,-4.3 -0.1,-4.7 -0.9,-0.5 -7.4,3.3 -10.8,2.7 z"
   stroke="#001026"
   stroke-width="1.2"
   fill="#ffab19"
   stroke-linecap="round"
   stroke-linejoin="round"
   id="path1"
   sodipodi:nodetypes="cccccscc" />
            <path
   d="m 3.8,59.6 c -2,0.6 -3,4.8 -2,8.3 1,3.5 2.6,5.3 3.9,6.6 -0.2,-0.7 -0.6,-2.9 1.1,-4.2 2.1,-1.7 5.8,-0.8 5.8,-0.8 0,0 -3.1,-3.8 -4.7,-6.5 C 6.3,60.7 5.8,59.2 3.8,59.6 Z"
   id="detail"
   fill="#ffffff"
   stroke-width="1" />
          </g>
          <path
   d="m 132.2446,167.79565 c -8.68208,-6.00522 -13.50394,-5.91196 -11.33478,-7.62042 1.87517,-1.47691 2.55702,-3.63789 6.02609,-0.48714 8.82697,7.82125 0.24527,-44.05716 14.02081,2.71244 1.00365,3.40752 3.60892,6.89229 6.64087,9.64189 4.1715,3.78305 11.73809,8.3055 8.12774,11.62047 -4.90067,4.49972 -16.80348,-3.13221 -17.57144,-6.27853 -0.59712,-2.4464 2.9121,-2.88135 1.31298,-4.1425 -7.08229,-5.58545 -3.54432,-2.74417 -7.22227,-5.44621 z"
   id="leg"
   stroke="#001026"
   stroke-width="1.15297"
   fill="#ffab19"
   stroke-linecap="round"
   stroke-linejoin="round"
   sodipodi:nodetypes="sscssssss" />
          <path
   d="m 143.22167,145.9037 c 20.52194,16.41755 22.65106,13.58491 21.39313,20.1968 -1.28579,6.7583 -17.85862,-4.05078 -23.29313,-11.2968 -1.2,-1.6 -3.3,-4.3 -3.3,-6.9 0.1,-2.8 3.5,-3.5 5.2,-2 z"
   id="arm"
   stroke="#001026"
   stroke-width="1.2"
   fill="#ffab19"
   stroke-linecap="round"
   stroke-linejoin="round"
   sodipodi:nodetypes="csscc" />
          <g
   id="body-and-leg"
   transform="translate(89.621666,85.203694)">
            <path
   d="m 46.2,76.7 c 1.2,-0.9 2.4,-2.4 4,-4.7 1.3,-1.9 2.7,-5.6 2.7,-5.6 0.9,-2.5 1.5,-7.3 -1.8,-7.2 -2.2,0.1 -4.2,-0.2 -7.6,-0.7 -6,-1.2 -7.1,-2 -9.6,2.1 -1.371248,2.437774 -1.300887,10.012608 -4.59154,15.803298 -3.188675,5.611235 -9.724525,9.440944 -12.005429,11.84273 -3.393467,3.573312 -5.236873,8.059398 -1.842274,10.991102 0.5,0.4 1.1,0.6 1.7,0.7 7.067827,-0.120219 5.292789,0.02835 17.886953,-0.267318 1.701379,-0.03994 2.087627,-3.116193 2.087627,-4.272439 0,-6.850616 -11.155542,-4.7 -11.155542,-4.7 z"
   id="body"
   stroke="#001026"
   stroke-width="1.2"
   fill="#ffab19"
   stroke-linecap="round"
   stroke-linejoin="round"
   sodipodi:nodetypes="ccccccssccsscc" />
            <path
   d="m 50.6,70 c 0,0 1.9,-2.5 -2.4,-5.2 -4.5,-2.9 -6.2,0.3 -8,2.7 -2,3.1 0,4.6 2,6.4 1.6,1.5 3.1,2.7 3.1,2.7 0,0 3.1,-2.1 5.3,-6.6 z"
   id="tummy"
   fill="#ffffff"
   stroke-width="1" />
          </g>
          
          <g
   id="head"
   transform="rotate(-0.07589963,66343.309,-66619.999)">
            <path
   d="M 59.960038,9.8817634 C 57.935553,8.71924 55.748694,7.710453 53.049152,6.9407353 48.564192,5.5211792 43.754141,5.579566 43.754141,5.579566 L 35.08582,-5.9824495 c -0.307473,-0.3247464 -0.879925,-0.2138481 -0.922764,0.1962303 L 30.014249,11.752521 c 0.837432,-0.546542 -14.3386,8.402652 -11.565812,21.54349 2.772789,13.140839 15.217844,23.097777 34.149539,26.050891 18.931697,2.953117 26.760162,-5.690674 27.582046,-11.457347 0.821884,-5.766672 -5.131692,-10.168369 -5.131692,-10.168369 0,0 1.445121,-4.262819 0.319216,-10.525592 -0.656749,-3.750825 -5.063288,-10.35631 -5.063288,-10.35631 L 71.520673,5.8953216 c 0.04284,-0.410079 -0.392805,-0.6750584 -0.743118,-0.5897259 z"
   stroke="#001026"
   stroke-width="1.2"
   fill="#ffab19"
   id="path3"
   sodipodi:nodetypes="ccccccssscccccc" />
            <path
   d="m 74.629614,37.994458 c 0,0 5.868243,4.051384 5.046359,9.818056 C 78.85409,53.579187 70.820757,61.616323 52.111202,58.637642 27.66054,55.059219 21.779165,37.594412 31.700519,29.925207 c 9.955556,-7.763177 17.649643,4.721236 25.748268,7.030411 6.936797,1.992698 9.843278,-3.653749 17.180827,1.03884 z"
   id="face"
   fill="#ffffff"
   stroke-width="1" />
            <path
   d="m 44.400559,39.556188 c 4.674341,-1.658414 5.340325,5.390539 14.663907,8.425887 2.329685,0.758443 1.289472,7.266537 -3.180406,7.206472 C 44.144627,55.030767 35.23326,40.582801 44.400559,39.556188 Z"
   id="mouth"
   stroke="#001026"
   stroke-width="1.2"
   fill="#ffffff"
   stroke-linecap="round"
   stroke-linejoin="round"
   sodipodi:nodetypes="cssc" />
            <path
   d="m 79.027515,44.916052 c 0,0 6.799989,2.368574 12.516221,0.405238"
   id="whisker"
   stroke="#001026"
   stroke-width="1.2"
   stroke-linecap="round"
   stroke-linejoin="round"
   fill="none"
   sodipodi:nodetypes="cc" />
            <path
   d="m 77.385473,50.597046 c 0,0 3.014963,3.119293 9.106038,4.804175"
   id="path4"
   stroke="#001026"
   stroke-width="1.2"
   stroke-linecap="round"
   stroke-linejoin="round"
   fill="none"
   sodipodi:nodetypes="cc" />
            <path
   d="m 57.962162,34.37561 c 1.973355,0.718243 3.972274,1.658625 3.82683,2.350612 -0.384861,1.34977 -2.752054,3.46788 -4.289764,3.014618 -1.759851,-0.427697 -4.85151,-4.213415 -4.304277,-5.716924 0.316485,-1.161824 2.887827,-0.332346 4.767211,0.351699 z"
   id="nose"
   stroke="#001026"
   stroke-width="1.2"
   fill="#001026"
   stroke-linecap="round"
   stroke-linejoin="round"
   sodipodi:nodetypes="scccs" />
            <path
   d="m 16.189025,17.575164 c 0,0 7.1237,5.572514 9.352361,9.68263"
   id="path5"
   stroke="#001026"
   stroke-width="1.2"
   stroke-linecap="round"
   stroke-linejoin="round"
   fill="none"
   sodipodi:nodetypes="cc" />
            <path
   d="m 13.426608,27.211505 c 0,0 6.577504,3.56461 11.199616,3.437819"
   id="path6"
   stroke="#001026"
   stroke-width="1.2"
   stroke-linecap="round"
   stroke-linejoin="round"
   fill="none"
   sodipodi:nodetypes="cc" />
            <g
   id="eye"
   transform="rotate(20,54.029655,28.893486)">
              <path
   d="m 71.4,21 c 2.9,4.5 3,9.6 0.2,11.4 -2.8,1.8 -7.4,-0.3 -10.4,-4.8 -2.9,-4.5 -3,-9.6 -0.2,-11.4 2.8,-1.9 7.5,0.3 10.4,4.8 z"
   id="pupil"
   stroke="#001026"
   stroke-width="1.2"
   fill="#ffffff"
   stroke-linecap="round"
   stroke-linejoin="round" />
              <path
   d="m 70.870134,28.513898 c 0,1.1 -0.8,2 -1.8,2 -1,0 -1.8,-0.9 -1.8,-2 0,-1.1 0.8,-2 1.8,-2 1,0 1.8,0.9 1.8,2"
   id="path7"
   fill="#001026"
   stroke-width="1"
   sodipodi:nodetypes="csssc" />
            </g>
            <g
   id="g9"
   transform="rotate(20,54.029655,28.893486)">
              <path
   d="m 46.6,23.8 c 3,4.4 2.8,9.8 0.1,11.7 C 43.4,37.4 39,36 36,31.6 32.9,27.2 32.7,21.5 35.8,19.3 c 3.1,-2.3 7.8,0.1 10.8,4.5 z"
   stroke="#001026"
   stroke-width="1.2"
   fill="#ffffff"
   stroke-linecap="round"
   stroke-linejoin="round"
   id="path8" />
              <path
   d="m 45.851268,32.117987 c 0,1.1 -0.8,2 -1.8,2 -1,0 -1.8,-0.9 -1.8,-2 0,-1.1 0.8,-2 1.8,-2 1,0.1 1.8,0.9 1.8,2"
   id="path9"
   fill="#001026"
   stroke-width="1"
   sodipodi:nodetypes="csscc" />
            </g>
          </g><path
   d="m 110.91562,131.40062 c 0.64605,1.01667 3.34745,2.91782 5.01376,4.46789 4.49169,4.17834 11.94376,6.5686 9.40502,12.12567 -2.52951,4.65063 -8.9808,-2.37803 -15.68604,-6.19518 -2.28457,-1.30055 -5.4238,-4.79769 -6.17552,-6.79363 -1.64161,-3.41399 -7.949864,-17.86016 -5.137918,-19.91939 5.964848,-2.95793 10.712928,13.37539 12.580698,16.31464 z"
   id="path2"
   stroke="#001026"
   stroke-width="1.2"
   fill="#ffab19"
   stroke-linecap="round"
   stroke-linejoin="round"
   sodipodi:nodetypes="sscssss"
   style="display:inline" /><path
   d="m 120.63961,90.709855 -0.31094,0.421944 -0.63827,-0.47345 -3.11396,-2.317527 c -1.43237,-1.064078 -3.28155,-1.016127 -4.10962,0.107715 l -4.32947,5.874091 c -0.82897,1.123207 -0.3346,2.913603 1.09788,3.97939 l 3.11238,2.317482 0.63949,0.4745 -17.014783,21.2316 c -0.63245,0.85506 -0.474251,2.05667 0.351155,2.66996 l 1.565998,1.16639 c 0.824646,0.61248 2.015088,0.41203 2.6451,-0.44523 l 17.01463,-21.22985 3.75105,2.78924 2.55908,1.90349 c 0.025,0.0201 0.0619,0.0121 0.0822,-0.0158 l 1.4692,-1.99197 4.33001,-5.87398 1.46887,-1.991579 c 0.0295,-0.0175 0.005,-0.06856 -0.009,-0.08445 l -2.5584,-1.903823 -3.75029,-2.790131 0.31093,-0.421683 c 0.63078,-0.855573 0.47387,-2.057979 -0.34984,-2.671368 l -1.56919,-1.166319 c -0.8217,-0.614561 -2.01184,-0.413695 -2.64388,0.44335 z"
   style="display:inline;fill:#1f1a17;stroke-width:0.0487917"
   id="path1-7"
   sodipodi:nodetypes="cccccccccccccccccccccccccccc" /><path
   d="m 112.35482,100.6272 0.63949,0.4745 -17.014776,21.2316 c -0.63245,0.85506 -0.474251,2.05667 0.351155,2.66996 l 1.565993,1.16639 c 0.82465,0.61248 2.01509,0.41203 2.645098,-0.44523 l 17.01463,-21.22985 z"
   style="display:inline;fill:#ccac6d;fill-opacity:1;stroke:#000000;stroke-width:1.2;stroke-dasharray:none;stroke-opacity:1"
   id="path1-7-6"
   sodipodi:nodetypes="cccccccc" />
        <path
   class="fil0"
   d="m 156.05743,160.82946 h -31.94765 v 4.81675 c 10.74092,1.75245 12.65134,5.4453 12.75068,8.71864 0.0767,2.52786 -0.0199,5.58497 -5.49655,8.56241 v 2.66225 h 6.68156 c 0.0962,-2.45132 2.07741,-4.42578 4.48593,-4.42578 h 2.64708 c 2.40887,0 4.39069,1.97457 4.48703,4.42578 h 7.57426 v -2.77512 c -3.85987,-1.20281 -5.16605,-3.05767 -4.93434,-4.98138 0.16737,-1.38822 0.56212,-3.58383 1.95363,-4.82489 1.7879,-1.59658 4.84809,-2.11863 7.21619,-2.64 5.19361,-1.14362 11.72315,-2.16513 13.60736,-7.87919 h -16.77838 v -0.35539 h -2.24535 v -1.30375 z m 15.88841,3.08094 c -3.64343,2.26474 -7.89876,3.77706 -13.26895,3.90888 -1.35265,0.0495 -1.38137,1.87535 0,1.83622 6.42364,-0.46989 10.45273,-2.6687 13.26895,-5.7451 z"
   id="path1-3"
   style="display:inline;fill:#1f1a17;stroke-width:0.0276666"
   sodipodi:nodetypes="cccscccsscccccccccccccccc" /><path
   style="fill:#ffab19;fill-opacity:1;stroke:#000000;stroke-width:1.2;stroke-dasharray:none;stroke-opacity:1"
   d="m 98.114089,114.93467 c -1.775032,1.32048 -2.796308,5.09333 -0.315629,6.12128 2.4262,1.00537 4.59893,0.66206 5.46369,-0.67762 0.74013,-1.14659 0.61416,-3.35057 0.22735,-4.57565 -1.50938,-2.97291 -3.45112,-2.29951 -5.375401,-0.86801 z"
   id="path10"
   sodipodi:nodetypes="ssscss" /><g
   transform="matrix(0.43716875,0.21996088,-0.21996088,0.43716875,701.67848,894.61892)"
   style="display:inline"
   id="g15745"><path
     d="m -1764.6075,-935.9985 c 0,0 3.8003,2.04759 9.6285,4.07616 3.5202,1.22728 9.7726,-0.84277 13.0276,-1.70481 3.26,-0.86511 8.8927,-2.65449 7.3298,-4.21743 -1.5631,-1.56257 -6.0571,-4.89537 -6.0571,-4.89537 0,0 4.2789,7.06582 -23.9295,6.74145 z"
     style="fill:#ffffff;stroke:#000000;stroke-width:1.89946;stroke-linejoin:round;stroke-opacity:1"
     id="path9-1-4"
     inkscape:connector-curvature="0" /><path
     inkscape:connector-curvature="0"
     id="path13-3-8"
     style="fill:#ffffff;stroke:#000000;stroke-width:1.89946;stroke-linejoin:round;stroke-opacity:1"
     d="m -1738.5952,-941.13712 c 0,2.98008 -8.9157,5.39684 -19.915,5.39684 -10.9985,0 -19.9126,-2.41639 -19.9126,-5.39684 2.2937,-1.66297 1.9624,-3.06329 1.9624,-3.06329 h 35.9961 c 0,0 -0.3197,1.39983 1.8691,3.06255 z" /><path
     d="m -1774.2711,-954.86792 c 0.4453,-1.01594 2.1705,-4.52486 5.6775,-6.995 6.3577,-4.4835 14.2414,-3.62821 18.8768,-0.93691 3.1324,1.82227 5.2903,4.17054 7.0001,7.61821 0.4172,0.84216 1.1951,2.63915 1.7282,5.20993 0.4613,2.22972 0.5058,3.63581 0.58,5.97108 0,1.95125 -3.7069,3.71117 -10.0877,4.56818 -8.93,1.19586 -19.7224,0.15709 -24.1026,-2.3198 -1.2534,-0.70839 -1.8451,-1.46218 -1.8426,-2.19634 0.092,-3.01727 0.204,-6.43549 2.1707,-10.91935 z"
     style="fill:#ffffff;stroke-linejoin:round"
     id="path19-3-0"
     inkscape:connector-curvature="0" /><path
     d="m -1774.2711,-954.86792 c 0.4453,-1.01594 2.1705,-4.52486 5.6775,-6.995 6.3577,-4.4835 14.2414,-3.62821 18.8768,-0.93691 3.1324,1.82227 5.2903,4.17054 7.0001,7.61821 0.4172,0.84216 1.1951,2.63915 1.7282,5.20993 0.4613,2.22972 0.5058,3.63581 0.58,5.97108 0,1.95125 -3.7069,3.71117 -10.0877,4.56818 -8.93,1.19586 -19.7224,0.15709 -24.1026,-2.3198 -1.2534,-0.70839 -1.8451,-1.46218 -1.8426,-2.19634 0.092,-3.01727 0.204,-6.43549 2.1707,-10.91935 z"
     style="fill:#74fc00;fill-opacity:1;stroke:#000000;stroke-width:1.89946;stroke-linejoin:round;stroke-opacity:1"
     id="path23-1-6"
     inkscape:connector-curvature="0" /><path
     d="m -1764.7572,-936.08809 c 0,0 3.8014,2.04415 9.6284,4.07591 3.5189,1.22483 9.7706,-0.84277 13.0263,-1.70788 3.2599,-0.86192 8.8934,-2.65141 7.3303,-4.21754 -1.5629,-1.56233 -6.0547,-4.89329 -6.0547,-4.89329 0,0 4.277,7.06618 -23.9307,6.7428 z"
     style="fill:#ffbd34;fill-opacity:1;stroke:#ffbd34;stroke-width:0.633166;stroke-linejoin:round;stroke-opacity:1"
     id="path27-6-0"
     inkscape:connector-curvature="0" /><path
     sodipodi:nodetypes="csccccc"
     inkscape:connector-curvature="0"
     id="path31-3-3"
     style="fill:#ffbd34;fill-opacity:1;stroke:#ffbd34;stroke-width:0.633166;stroke-linejoin:round;stroke-opacity:1"
     d="m -1738.7453,-941.22671 c 0,2.98032 -8.913,5.39499 -19.9138,5.39499 -10.998,0 -19.9138,-2.41405 -19.9138,-5.39499 2.2952,-1.66272 1.961,-3.06243 1.961,-3.06243 h 35.9986 c 0,0 -0.214,1.63369 1.9731,3.29629 z" /><path
     d="m -1774.422,-954.95874 c 0.4452,-1.01521 2.1713,-4.52265 5.6774,-6.99513 6.357,-4.48337 14.2401,-3.6271 18.8767,-0.93616 3.1344,1.82238 5.2911,4.17041 6.9995,7.61526 0.418,0.84216 1.1977,2.63915 1.7282,5.21128 0.46,2.22825 0.505,3.63557 0.5804,5.96789 0,1.95137 -3.7087,3.71424 -10.0905,4.5683 -8.9296,1.19893 -19.7211,0.15697 -24.1,-2.31993 -1.2535,-0.70838 -1.8464,-1.45948 -1.8437,-2.19633 0.096,-3.01248 0.2077,-6.43119 2.1721,-10.91518 z"
     style="fill:#ffd520;stroke-linejoin:round"
     id="path37-0-6"
     inkscape:connector-curvature="0" /><path
     d="m -1774.422,-954.95874 c 0.4452,-1.01521 2.1713,-4.52265 5.6774,-6.99513 6.357,-4.48337 14.2401,-3.6271 18.8767,-0.93616 3.1344,1.82238 5.2911,4.17041 6.9995,7.61526 0.418,0.84216 1.1977,2.63915 1.7282,5.21128 0.46,2.22825 0.505,3.63557 0.5804,5.96789 0,1.95137 -3.7087,3.71424 -10.0905,4.5683 -8.9296,1.19893 -19.7211,0.15697 -24.1,-2.31993 -1.2535,-0.70838 -1.8464,-1.45948 -1.8437,-2.19633 0.096,-3.01248 0.2077,-6.43119 2.1721,-10.91518 z"
     style="fill:none;stroke:#000000;stroke-width:0.633166;stroke-linejoin:round"
     id="path41-6-5"
     inkscape:connector-curvature="0"
     sodipodi:nodetypes="ccccccccccc" /><path
     d="m -1774.422,-954.95874 c 0.4452,-1.01521 2.1713,-4.52265 5.6774,-6.99513 6.357,-4.48337 14.2401,-3.6271 18.8767,-0.93616 3.1344,1.82238 5.2911,4.17041 6.9995,7.61526 0.418,0.84216 1.1977,2.63915 1.7282,5.21128 0.46,2.22825 0.505,3.63557 0.5804,5.96789 0,1.95137 -3.7087,3.71424 -10.0905,4.5683 -8.9296,1.19893 -19.7211,0.15697 -24.1,-2.31993 -1.2535,-0.70838 -1.8464,-1.45948 -1.8437,-2.19633 0.096,-3.01248 0.2077,-6.43119 2.1721,-10.91518 z"
     style="fill:url(#radialGradient3026-9-1);stroke:#fac44b;stroke-linejoin:round;stroke-opacity:1"
     id="path52-0-7"
     inkscape:connector-curvature="0"
     sodipodi:nodetypes="ccccccccccc" /><path
     d="m -1767.915,-962.62629 c 13.3737,-8.528 26.9474,8.98687 26.5227,20.23415 l 1.2441,0.50196 c -7e-4,-12.25929 -13.2853,-30.32975 -27.7672,-20.73611"
     style="fill:#cccccc;stroke-linejoin:round"
     id="path60-2-9"
     inkscape:connector-curvature="0" /><polygon
     transform="matrix(-0.12272793,0,0,0.12272793,-1731.9594,-974.55471)"
     id="polygon62-6-3"
     style="fill:#cccccc;stroke-linejoin:round"
     points="61.197,281.15 66.729,266.15 76.865,262.06 " /><path
     d="m -1745.3502,-940.13566 c 0,-11.09583 -6.6212,-28.38329 -18.6117,-24.45845 12.8582,-4.35218 23.8104,11.56833 23.8104,22.70098 l 0.6789,1.84129 -5.2013,1.75427 -0.6765,-1.83772 z"
     style="fill:#ffd467;fill-opacity:1;stroke:none;stroke-width:0.633166;stroke-linecap:round;stroke-linejoin:round"
     id="path64-7-7"
     inkscape:connector-curvature="0" /><path
     d="m -1745.349,-940.13566 0.6782,1.84141 -3.0497,-2.13755 c 0.4259,-11.24802 -6.82,-30.72126 -20.1949,-22.19658 14.4819,-9.59106 22.566,10.23183 22.566,22.49358 z"
     style="fill:#cccccc;stroke-linejoin:round"
     id="path70-9-2"
     inkscape:connector-curvature="0" /><path
     d="m -1745.349,-940.13566 0.6782,1.84141 -3.0497,-2.13755 c 0.4259,-11.24802 -6.82,-30.72126 -20.1949,-22.19658 14.4819,-9.59106 22.566,10.23183 22.566,22.49358 z"
     style="fill:#ffbd34;fill-opacity:1;stroke:none;stroke-width:0.633166;stroke-linecap:round;stroke-linejoin:round"
     id="path74-7-4"
     inkscape:connector-curvature="0" /></g></g>
      </g>
    </g>
  </g>
</svg>
